<svg id="visual" viewBox="0 0 960 540" width="960" height="540" xmlns="http://www.w3.org/2000/svg" xmlns:xlink="http://www.w3.org/1999/xlink" version="1.1"><rect x="0" y="0" width="960" height="540" fill="#EAD8CE"></rect><defs><linearGradient id="grad1_0" x1="43.8%" y1="100%" x2="100%" y2="0%"><stop offset="14.444444444444446%" stop-color="#ead8ce" stop-opacity="1"></stop><stop offset="85.55555555555554%" stop-color="#ead8ce" stop-opacity="1"></stop></linearGradient></defs><defs><linearGradient id="grad2_0" x1="0%" y1="100%" x2="56.3%" y2="0%"><stop offset="14.444444444444446%" stop-color="#ead8ce" stop-opacity="1"></stop><stop offset="85.55555555555554%" stop-color="#ead8ce" stop-opacity="1"></stop></linearGradient></defs><g transform="translate(960, 540)"><path d="M-270 0C-265.4 -51.4 -260.7 -102.9 -233.8 -135C-206.9 -167.1 -157.7 -179.9 -115 -199.2C-72.3 -218.5 -36.2 -244.2 0 -270L0 0Z" fill="#CB9F84"></path></g><g transform="translate(0, 0)"><path d="M270 0C235.9 31.4 201.8 62.7 183.6 106C165.4 149.3 163 204.5 135 233.8C107 263.1 53.5 266.6 0 270L0 0Z" fill="#CB9F84"></path></g></svg>